# xmcd
#
# Track frame offsets:
#	150
#	24702
#	44945
#	54544
#	70286
#	92151
#	112146
#	127935
#	153064
#	179979
#	198267
#
# Disc length: 2835 seconds
#
# Revision: 1
# Processed by: cddbd v1.5.2PL0 Copyright (c) Steve Scherf et al.
# Submitted via: EZCDAudioConverter 1.3.2.1
#
DISCID=a30b110b
DTITLE=Stephen Ray Nichols - Keep Eternity In View
DYEAR=2007
DGENRE=Gospel
TTITLE0=Keep Eternity In View
TTITLE1=Some Sweet Day
TTITLE2=I'm Gonna Keep On Working
TTITLE3=Under His Wings
TTITLE4=Keep On Praying For Me
TTITLE5=Then Came Jesus
TTITLE6=Another Sinner's Headed For Home
TTITLE7=Unknown Heros
TTITLE8=Down In The Valley
TTITLE9=Calvary Answers For Me
TTITLE10=Some Call It Heaven
EXTD=
EXTT0=
EXTT1=
EXTT2=
EXTT3=
EXTT4=
EXTT5=
EXTT6=
EXTT7=
EXTT8=
EXTT9=
EXTT10=
PLAYORDER=
